<svg width="48" height="48" viewBox="0 0 48 48" fill="none" xmlns="http://www.w3.org/2000/svg">
<circle cx="24" cy="24" r="24" fill="#F2F2F2"/>
<path d="M24 14C18.48 14 14 18.48 14 24C14 29.52 18.48 34 24 34C29.51 34 34 29.52 34 24C34 18.48 29.51 14 24 14ZM30.605 18.61C31.8357 20.1093 32.5167 21.9844 32.535 23.924C32.254 23.87 29.434 23.295 26.592 23.653C26.527 23.512 26.472 23.36 26.408 23.208C26.2311 22.791 26.043 22.3789 25.844 21.972C28.989 20.692 30.421 18.848 30.605 18.61ZM24 15.475C26.17 15.475 28.154 16.289 29.662 17.623C29.51 17.839 28.219 19.564 25.182 20.703C23.783 18.133 22.232 16.028 21.993 15.703C22.6509 15.5492 23.3244 15.4727 24 15.475ZM20.367 16.278C21.5114 17.8643 22.5687 19.5118 23.534 21.213C19.542 22.276 16.017 22.253 15.638 22.253C15.9128 20.9601 16.4826 19.7482 17.3029 18.7118C18.1232 17.6754 19.1718 16.8424 20.367 16.278ZM15.453 24.01V23.75C15.823 23.76 19.965 23.815 24.228 22.535C24.478 23.012 24.705 23.5 24.922 23.988C24.813 24.021 24.694 24.053 24.586 24.086C20.182 25.506 17.839 29.389 17.644 29.715C16.2338 28.1495 15.4525 26.117 15.453 24.01ZM24 32.547C22.1014 32.5502 20.2567 31.9164 18.761 30.747C18.913 30.432 20.649 27.091 25.464 25.41C25.486 25.4 25.497 25.4 25.518 25.388C26.3303 27.4834 26.9407 29.6516 27.341 31.863C26.2858 32.317 25.1487 32.5498 24 32.547ZM28.761 31.082C28.675 30.562 28.219 28.067 27.101 24.998C29.781 24.575 32.124 25.269 32.416 25.367C32.2336 26.5201 31.8148 27.623 31.1858 28.6065C30.5568 29.59 29.7313 30.4328 28.761 31.082Z" fill="black"/>
</svg>
