<svg width="48" height="48" viewBox="0 0 48 48" fill="none" xmlns="http://www.w3.org/2000/svg">
<circle cx="24" cy="24" r="24" fill="white"/>
<path d="M33.375 24C33.375 24.2984 33.2565 24.5845 33.0455 24.7955C32.8345 25.0065 32.5484 25.125 32.25 25.125H18.4688L23.2988 29.9541C23.5101 30.1654 23.6289 30.4521 23.6289 30.7509C23.6289 31.0498 23.5101 31.3365 23.2988 31.5478C23.0874 31.7592 22.8008 31.8779 22.5019 31.8779C22.203 31.8779 21.9164 31.7592 21.705 31.5478L14.955 24.7978C14.8502 24.6933 14.7669 24.5691 14.7102 24.4324C14.6534 24.2956 14.6241 24.149 14.6241 24.0009C14.6241 23.8529 14.6534 23.7063 14.7102 23.5695C14.7669 23.4328 14.8502 23.3086 14.955 23.2041L21.705 16.4541C21.8097 16.3494 21.9339 16.2664 22.0706 16.2098C22.2074 16.1531 22.3539 16.124 22.5019 16.124C22.6499 16.124 22.7964 16.1531 22.9332 16.2098C23.0699 16.2664 23.1941 16.3494 23.2988 16.4541C23.4034 16.5587 23.4864 16.683 23.5431 16.8197C23.5997 16.9564 23.6289 17.103 23.6289 17.2509C23.6289 17.3989 23.5997 17.5455 23.5431 17.6822C23.4864 17.8189 23.4034 17.9432 23.2988 18.0478L18.4688 22.875H32.25C32.5484 22.875 32.8345 22.9935 33.0455 23.2045C33.2565 23.4155 33.375 23.7016 33.375 24Z" fill="black"/>
</svg>
