<svg width="32" height="32" viewBox="0 0 32 32" fill="none" xmlns="http://www.w3.org/2000/svg">
<path d="M20.788 24L24.252 30H21.944L18.48 24H13.532L10.068 30H7.76L11.224 24H5C4.73478 24 4.48043 23.8946 4.29289 23.7071C4.10536 23.5196 4 23.2652 4 23V6H2C1.73478 6 1.48043 5.89464 1.29289 5.70711C1.10536 5.51957 1 5.26522 1 5C1 4.73478 1.10536 4.48043 1.29289 4.29289C1.48043 4.10536 1.73478 4 2 4H30C30.2652 4 30.5196 4.10536 30.7071 4.29289C30.8946 4.48043 31 4.73478 31 5C31 5.26522 30.8946 5.51957 30.7071 5.70711C30.5196 5.89464 30.2652 6 30 6H28V23C28 23.2652 27.8946 23.5196 27.7071 23.7071C27.5196 23.8946 27.2652 24 27 24H20.788ZM26 6H6V22H26V6ZM11 14C11.2652 14 11.5196 14.1054 11.7071 14.2929C11.8946 14.4804 12 14.7348 12 15V17C12 17.2652 11.8946 17.5196 11.7071 17.7071C11.5196 17.8946 11.2652 18 11 18C10.7348 18 10.4804 17.8946 10.2929 17.7071C10.1054 17.5196 10 17.2652 10 17V15C10 14.7348 10.1054 14.4804 10.2929 14.2929C10.4804 14.1054 10.7348 14 11 14ZM16 12C16.2652 12 16.5196 12.1054 16.7071 12.2929C16.8946 12.4804 17 12.7348 17 13V17C17 17.2652 16.8946 17.5196 16.7071 17.7071C16.5196 17.8946 16.2652 18 16 18C15.7348 18 15.4804 17.8946 15.2929 17.7071C15.1054 17.5196 15 17.2652 15 17V13C15 12.7348 15.1054 12.4804 15.2929 12.2929C15.4804 12.1054 15.7348 12 16 12ZM21 10C21.2652 10 21.5196 10.1054 21.7071 10.2929C21.8946 10.4804 22 10.7348 22 11V17C22 17.2652 21.8946 17.5196 21.7071 17.7071C21.5196 17.8946 21.2652 18 21 18C20.7348 18 20.4804 17.8946 20.2929 17.7071C20.1054 17.5196 20 17.2652 20 17V11C20 10.7348 20.1054 10.4804 20.2929 10.2929C20.4804 10.1054 20.7348 10 21 10Z" fill="black"/>
</svg>
