<svg width="32" height="32" viewBox="0 0 32 32" fill="none" xmlns="http://www.w3.org/2000/svg">
<path d="M22.6667 16.6663C22.8435 16.6663 23.013 16.5961 23.1381 16.4711C23.2631 16.3461 23.3333 16.1765 23.3333 15.9997C23.3333 15.8229 23.2631 15.6533 23.1381 15.5283C23.013 15.4032 22.8435 15.333 22.6667 15.333C22.4898 15.333 22.3203 15.4032 22.1953 15.5283C22.0702 15.6533 22 15.8229 22 15.9997C22 16.1765 22.0702 16.3461 22.1953 16.4711C22.3203 16.5961 22.4898 16.6663 22.6667 16.6663ZM16 16.6663C16.1768 16.6663 16.3464 16.5961 16.4714 16.4711C16.5964 16.3461 16.6667 16.1765 16.6667 15.9997C16.6667 15.8229 16.5964 15.6533 16.4714 15.5283C16.3464 15.4032 16.1768 15.333 16 15.333C15.8232 15.333 15.6536 15.4032 15.5286 15.5283C15.4036 15.6533 15.3333 15.8229 15.3333 15.9997C15.3333 16.1765 15.4036 16.3461 15.5286 16.4711C15.6536 16.5961 15.8232 16.6663 16 16.6663ZM9.33332 16.6663C9.51013 16.6663 9.6797 16.5961 9.80473 16.4711C9.92975 16.3461 9.99999 16.1765 9.99999 15.9997C9.99999 15.8229 9.92975 15.6533 9.80473 15.5283C9.6797 15.4032 9.51013 15.333 9.33332 15.333C9.15651 15.333 8.98694 15.4032 8.86192 15.5283C8.73689 15.6533 8.66666 15.8229 8.66666 15.9997C8.66666 16.1765 8.73689 16.3461 8.86192 16.4711C8.98694 16.5961 9.15651 16.6663 9.33332 16.6663Z" fill="black" stroke="black" stroke-width="2" stroke-linecap="round" stroke-linejoin="round"/>
<path d="M16 29.3332C23.364 29.3332 29.3333 23.3638 29.3333 15.9998C29.3333 8.63584 23.364 2.6665 16 2.6665C8.63599 2.6665 2.66666 8.63584 2.66666 15.9998C2.66666 18.4278 3.31599 20.7065 4.45066 22.6665L3.33332 28.6665L9.33332 27.5492C11.3594 28.7212 13.6593 29.3367 16 29.3332Z" stroke="black" stroke-width="2" stroke-linecap="round" stroke-linejoin="round"/>
</svg>
