<svg width="56" height="56" viewBox="0 0 56 56" fill="none" xmlns="http://www.w3.org/2000/svg">
<circle cx="28" cy="28" r="28" fill="white"/>
<path d="M28 18C22.48 18 18 22.48 18 28C18 33.52 22.48 38 28 38C33.51 38 38 33.52 38 28C38 22.48 33.51 18 28 18ZM34.605 22.61C35.8357 24.1093 36.5167 25.9844 36.535 27.924C36.254 27.87 33.434 27.295 30.592 27.653C30.527 27.512 30.472 27.36 30.408 27.208C30.2311 26.791 30.043 26.3789 29.844 25.972C32.989 24.692 34.421 22.848 34.605 22.61ZM28 19.475C30.17 19.475 32.154 20.289 33.662 21.623C33.51 21.839 32.219 23.564 29.182 24.703C27.783 22.133 26.232 20.028 25.993 19.703C26.6509 19.5492 27.3244 19.4727 28 19.475ZM24.367 20.278C25.5114 21.8643 26.5687 23.5118 27.534 25.213C23.542 26.276 20.017 26.253 19.638 26.253C19.9128 24.9601 20.4826 23.7482 21.3029 22.7118C22.1232 21.6754 23.1718 20.8424 24.367 20.278ZM19.453 28.01V27.75C19.823 27.76 23.965 27.815 28.228 26.535C28.478 27.012 28.705 27.5 28.922 27.988C28.813 28.021 28.694 28.053 28.586 28.086C24.182 29.506 21.839 33.389 21.644 33.715C20.2338 32.1495 19.4525 30.117 19.453 28.01ZM28 36.547C26.1014 36.5502 24.2567 35.9164 22.761 34.747C22.913 34.432 24.649 31.091 29.464 29.41C29.486 29.4 29.497 29.4 29.518 29.388C30.3303 31.4834 30.9407 33.6516 31.341 35.863C30.2858 36.317 29.1487 36.5498 28 36.547ZM32.761 35.082C32.675 34.562 32.219 32.067 31.101 28.998C33.781 28.575 36.124 29.269 36.416 29.367C36.2336 30.5201 35.8148 31.623 35.1858 32.6065C34.5568 33.59 33.7313 34.4328 32.761 35.082Z" fill="black"/>
</svg>
