<svg width="32" height="32" viewBox="0 0 32 32" fill="none" xmlns="http://www.w3.org/2000/svg">
<path d="M23.4346 13.9731C23.5969 13.7686 23.6727 13.5088 23.646 13.2491C23.6192 12.9894 23.492 12.7505 23.2914 12.5833C23.0909 12.4162 22.8329 12.3341 22.5727 12.3547C22.3124 12.3752 22.0705 12.4966 21.8986 12.6931L19.5026 15.5678C19.0093 16.1611 18.704 16.5225 18.4546 16.7478C18.3898 16.8115 18.3167 16.8662 18.2373 16.9105L18.2226 16.9171L18.208 16.9105C18.1281 16.8662 18.0546 16.8115 17.9893 16.7478C17.74 16.5211 17.436 16.1611 16.9413 15.5678L16.552 15.1011C16.1133 14.5745 15.7186 14.1011 15.3506 13.7678C14.9493 13.4051 14.444 13.0825 13.7773 13.0825C13.1106 13.0825 12.6066 13.4051 12.204 13.7678C11.836 14.1011 11.4413 14.5745 11.004 15.1011L8.56395 18.0265C8.47991 18.1274 8.41657 18.2439 8.37755 18.3693C8.33853 18.4948 8.3246 18.6266 8.33654 18.7574C8.36067 19.0216 8.48876 19.2654 8.69262 19.4351C8.89648 19.6049 9.15943 19.6867 9.4236 19.6625C9.68778 19.6384 9.93155 19.5103 10.1013 19.3065L12.4973 16.4318C12.9906 15.8385 13.296 15.4771 13.5453 15.2518C13.6102 15.1881 13.6832 15.1334 13.7626 15.0891L13.7773 15.0825L13.792 15.0891C13.8718 15.1334 13.9453 15.1881 14.0106 15.2518C14.26 15.4785 14.564 15.8385 15.0586 16.4318L15.448 16.8985C15.8866 17.4251 16.2813 17.8985 16.6493 18.2318C17.0506 18.5945 17.556 18.9171 18.2226 18.9171C18.8893 18.9171 19.3933 18.5945 19.796 18.2318C20.164 17.8985 20.5586 17.4251 20.996 16.8985L23.4346 13.9731Z" fill="black"/>
<path fill-rule="evenodd" clip-rule="evenodd" d="M15.924 1.6665C12.8453 1.6665 10.4333 1.6665 8.55063 1.91984C6.62529 2.1785 5.10529 2.71984 3.91196 3.91184C2.71863 5.10517 2.17863 6.62517 1.91996 8.55184C1.66663 10.4332 1.66663 12.8452 1.66663 15.9238V16.0758C1.66663 19.1545 1.66663 21.5665 1.91996 23.4492C2.17863 25.3745 2.71996 26.8945 3.91196 28.0878C5.10529 29.2812 6.62529 29.8212 8.55196 30.0798C10.4333 30.3332 12.8453 30.3332 15.924 30.3332H16.076C19.1546 30.3332 21.5666 30.3332 23.4493 30.0798C25.3746 29.8212 26.8946 29.2798 28.088 28.0878C29.2813 26.8945 29.8213 25.3745 30.08 23.4478C30.3333 21.5665 30.3333 19.1545 30.3333 16.0758V15.9238C30.3333 12.8452 30.3333 10.4332 30.08 8.5505C29.8213 6.62517 29.28 5.10517 28.088 3.91184C26.8946 2.7185 25.3746 2.1785 23.448 1.91984C21.5666 1.6665 19.1546 1.6665 16.076 1.6665H15.924ZM5.32663 5.3265C6.08663 4.5665 7.11329 4.1305 8.81863 3.90117C10.552 3.66917 12.8293 3.6665 16 3.6665C19.1706 3.6665 21.448 3.66917 23.1813 3.90117C24.8866 4.1305 25.9146 4.56784 26.6746 5.3265C27.4333 6.0865 27.8693 7.11317 28.0986 8.8185C28.3306 10.5518 28.3333 12.8292 28.3333 15.9998C28.3333 19.1705 28.3306 21.4478 28.0986 23.1812C27.8693 24.8865 27.432 25.9145 26.6733 26.6745C25.9133 27.4332 24.8866 27.8692 23.1813 28.0985C21.448 28.3305 19.1706 28.3332 16 28.3332C12.8293 28.3332 10.552 28.3305 8.81863 28.0985C7.11329 27.8692 6.08529 27.4318 5.32529 26.6732C4.56663 25.9132 4.13063 24.8865 3.90129 23.1812C3.66929 21.4478 3.66663 19.1705 3.66663 15.9998C3.66663 12.8292 3.66929 10.5518 3.90129 8.8185C4.13063 7.11317 4.56796 6.0865 5.32663 5.3265Z" fill="black"/>
</svg>
