<svg width="48" height="48" viewBox="0 0 48 48" fill="none" xmlns="http://www.w3.org/2000/svg">
<circle cx="24" cy="24" r="24" fill="#212221"/>
<path d="M16.5714 25.0435C18.7143 23.921 22.1429 24.4028 22.1429 24.4028V24.9028C22.1429 24.9028 21.0803 24.6899 20.4286 25.472C18.2857 28.0434 18.1119 34.6176 14 36.6149C11.5865 37.7872 8 37.472 8 37.472V37.0435C8 37.0435 9.59761 36.7392 10.1429 35.7577C12.2857 31.9006 12.5794 27.1345 16.5714 25.0435Z" fill="white"/>
<path d="M30.7859 34C30.1857 32.7286 20.7856 11.5 20.7856 11.5C20.7856 11.5 18.9171 16 19.9999 18.5715C22.2858 24 23.2857 26.5 26.2857 33.5C26.8311 34.7728 28.2857 37.4286 31.2856 37.4286H40.1427V36.911C40.1427 36.911 39.4078 36.911 38.7859 36.6C38.1639 36.289 37.6506 35.7959 37.2859 35C31.0004 21.2857 23.643 5.57144 23.643 5.57144C23.643 5.57144 21.683 9.51372 22.7859 12C27 21.5 31.7859 32.5 32.2859 33.5C32.7859 34.5 31.386 35.2714 30.7859 34Z" fill="white"/>
</svg>
