<svg width="48" height="48" viewBox="0 0 48 48" fill="none" xmlns="http://www.w3.org/2000/svg">
<circle cx="24" cy="24" r="24" fill="#212221"/>
<path d="M16.5714 24.0435C18.7143 22.921 22.1429 23.4028 22.1429 23.4028V23.9028C22.1429 23.9028 21.0803 23.6899 20.4286 24.472C18.2857 27.0434 18.1119 33.6176 14 35.6149C11.5865 36.7872 8 36.472 8 36.472V36.0435C8 36.0435 9.59761 35.7392 10.1429 34.7577C12.2857 30.9006 12.5794 26.1345 16.5714 24.0435Z" fill="white"/>
<path d="M30.7859 33C30.1857 31.7286 20.7856 10.5 20.7856 10.5C20.7856 10.5 18.9171 15 19.9999 17.5715C22.2858 23 23.2857 25.5 26.2857 32.5C26.8311 33.7728 28.2857 36.4286 31.2856 36.4286H40.1427V35.911C40.1427 35.911 39.4078 35.911 38.7859 35.6C38.1639 35.289 37.6506 34.7959 37.2859 34C31.0004 20.2857 23.643 4.57144 23.643 4.57144C23.643 4.57144 21.683 8.51372 22.7859 11C27 20.5 31.7859 31.5 32.2859 32.5C32.7859 33.5 31.386 34.2714 30.7859 33Z" fill="white"/>
</svg>
